<svg id="Layer_1" data-name="Layer 1" xmlns="http://www.w3.org/2000/svg" viewBox="0 0 85 88"><title>date</title><rect x="0.5" y="30.5" width="24" height="26"/><path d="M31,37V62H8V37H31m1-1H7V63H32V36Z" transform="translate(-7 -6)"/><rect x="30.5" y="30.5" width="24" height="26"/><path d="M61,37V62H38V37H61m1-1H37V63H62V36Z" transform="translate(-7 -6)"/><rect x="60.5" y="30.5" width="24" height="26"/><path d="M91,37V62H68V37H91m1-1H67V63H92V36Z" transform="translate(-7 -6)"/><rect x="0.5" y="0.5" width="84" height="25"/><path d="M91,7V31H8V7H91m1-1H7V32H92V6Z" transform="translate(-7 -6)"/><rect x="0.5" y="61.5" width="24" height="26"/><path d="M31,68V93H8V68H31m1-1H7V94H32V67Z" transform="translate(-7 -6)"/><rect x="30.5" y="61.5" width="24" height="26"/><path d="M61,68V93H38V68H61m1-1H37V94H62V67Z" transform="translate(-7 -6)"/><rect x="60.5" y="61.5" width="24" height="26"/><path d="M91,68V93H68V68H91m1-1H67V94H92V67Z" transform="translate(-7 -6)"/></svg>