<svg id="Layer_1" data-name="Layer 1" xmlns="http://www.w3.org/2000/svg" viewBox="0 0 88.93 65.59"><defs><style>.cls-1{stroke:#000;stroke-miterlimit:10;}</style></defs><title>dinner</title><path d="M50,79.5A29.5,29.5,0,1,1,79.5,50,29.53,29.53,0,0,1,50,79.5Z" transform="translate(-3.89 -15.75)"/><path d="M50,21A29,29,0,1,1,21,50,29,29,0,0,1,50,21m0-1A30,30,0,1,0,80,50,30,30,0,0,0,50,20Z" transform="translate(-3.89 -15.75)"/><path class="cls-1" d="M88.5,65.5s4,18-5,15v-64s12,5,8,38h-4S87.5,62.5,88.5,65.5Z" transform="translate(-3.89 -15.75)"/><path class="cls-1" d="M84.5,18.5" transform="translate(-3.89 -15.75)"/><path class="cls-1" d="M15.5,79.5v-42a2,2,0,0,1,2-2c2,0,4-4,3-16,0,0-1-6-2,0,0,0-2,15-4,5,0,0-2-13-3-5,0,0-1,14-3,6,0,0-2-13-4-7,0,0-1,17,3,17a2.94,2.94,0,0,1,3,3c0,3-1,33-1,33S8.5,81.5,15.5,79.5Z" transform="translate(-3.89 -15.75)"/></svg>