<svg id="Layer_1" data-name="Layer 1" xmlns="http://www.w3.org/2000/svg" viewBox="0 0 65 87.5"><defs><style>.cls-1{fill:#604b70;}</style></defs><title>location1</title><path class="cls-1" d="M22.09,57.57,22,57.38c-.56-.83-1.1-1.72-1.59-2.62a32,32,0,1,1,56.26,0c-.49.9-1,1.79-1.6,2.63l-.13.19-1.18,1.61L48.5,93.65ZM48.5,19.5a18,18,0,1,0,18,18A18,18,0,0,0,48.5,19.5Z" transform="translate(-16 -7)"/><path class="cls-1" d="M48.5,8A31.51,31.51,0,0,1,76.19,54.52c-.48.89-1,1.76-1.56,2.57l-.13.18-1.2,1.63,0,.06L48.5,92.81,23.74,59l-.06-.08-1.18-1.6-.13-.19c-.56-.83-1.09-1.7-1.57-2.59A31.51,31.51,0,0,1,48.5,8m0,48A18.5,18.5,0,1,0,30,37.5,18.52,18.52,0,0,0,48.5,56m0-49A32.51,32.51,0,0,0,19.93,55q.75,1.38,1.62,2.67l.14.2,1.19,1.62,0,.07L48.5,94.5,74.07,59.56l0-.07,1.19-1.62.14-.2q.87-1.29,1.62-2.67A32.51,32.51,0,0,0,48.5,7Zm0,48A17.5,17.5,0,1,1,66,37.5,17.5,17.5,0,0,1,48.5,55Z" transform="translate(-16 -7)"/></svg>